<svg xmlns="http://www.w3.org/2000/svg" viewBox="0 0 63.94 63.94"><defs><style>.cls-1{fill:none;}.cls-2{fill:#348ece;}.cls-3{fill:#355fab;}.cls-4{fill:#83a8d8;}.cls-5{fill:#75c9e9;}</style></defs><title>资源 5</title><g id="图层_2" data-name="图层 2"><g id="图层_2-2" data-name="图层 2"><path class="cls-1" d="M63.94,14h0A14,14,0,0,0,55.4,1.1,14.31,14.31,0,0,0,52.77.28,14,14,0,0,0,50,0H13.92A14,14,0,0,0,1.1,8.54a14.31,14.31,0,0,0-.82,2.63A14.81,14.81,0,0,0,0,13.91V50A14,14,0,0,0,8.54,62.84a14.31,14.31,0,0,0,2.63.82,13.9,13.9,0,0,0,2.73.28H50A14,14,0,0,0,62.84,55.4a14.31,14.31,0,0,0,.82-2.63A14,14,0,0,0,63.94,50Z"/><g id="Glyph"><path id="Combined_Shape" data-name="Combined Shape" class="cls-2" d="M14.3,33.4,15.2,21l.69-9a1.51,1.51,0,0,1,2-1.35l15.61,5.25,3.81,1.31a.78.78,0,0,1,.47,1,.65.65,0,0,1-.08.17l-8,12.73L15.17,33.92A.77.77,0,0,1,14.3,33.4Z"/><path id="Path_4" data-name="Path 4" class="cls-3" d="M32.05,34.52a1.49,1.49,0,0,1,1-.63L52.79,30a1,1,0,0,1,1.2.82,1.07,1.07,0,0,1-.44,1.06L21.61,53.74a1,1,0,0,1-1.42-.28,1.06,1.06,0,0,1,0-1.16Z"/><path id="Combined_Shape-2" data-name="Combined Shape-2" class="cls-4" d="M13.58,54.18a.76.76,0,0,1-.52-.25.73.73,0,0,1-.2-.58l1.46-20.26a.78.78,0,0,0,.71.79.66.66,0,0,0,.2,0l14.48-2.75L14.27,53.82A.75.75,0,0,1,13.58,54.18Z"/><path id="Combined_Shape-3" data-name="Combined Shape-3" class="cls-5" d="M29.7,31.12l8-12.74a.8.8,0,0,0,.1-.62.85.85,0,0,0-.38-.49L55.92,24a.8.8,0,0,1,.41.32.77.77,0,0,1-.51,1.18L29.7,31.12Z"/></g></g></g></svg>